<?xml version="1.0" standalone="no"?>
<!DOCTYPE svg PUBLIC "-//W3C//DTD SVG 1.1//EN" "http://www.w3.org/Graphics/SVG/1.1/DTD/svg11.dtd">
<!--Generator: Xara Xtreme (www.xara.com), SVG filter version: 1.0.0.13-->
<svg stroke-width="0.501" stroke-linejoin="bevel" fill-rule="evenodd" xmlns:xlink="http://www.w3.org/1999/xlink" xmlns="http://www.w3.org/2000/svg" version="1.1" overflow="visible" width="111pt" height="111pt" viewBox="0 0 111 111">
 <defs>
  <marker id="DefaultArrow2" markerUnits="strokeWidth" viewBox="0 0 1 1" markerWidth="1" markerHeight="1" overflow="visible" orient="auto">
   <!-- REF_ARROW_STRAIGHT (-2) -->
   <g transform="scale(0.0092592592)">
    <!-- 1/108 -->
    <path d="M -9 54 L -9 -54 L 117 0 z"/>
   </g>
  </marker>
  <marker id="DefaultArrow3" markerUnits="strokeWidth" viewBox="0 0 1 1" markerWidth="1" markerHeight="1" overflow="visible" orient="auto">
   <!-- REF_ARROW_ANGLED -->
   <g transform="scale(0.0092592592)">
    <path d="M -27 54 L -9 0 L -27 -54 L 135 0 z"/>
   </g>
  </marker>
  <marker id="DefaultArrow4" markerUnits="strokeWidth" viewBox="0 0 1 1" markerWidth="1" markerHeight="1" overflow="visible" orient="auto">
   <!-- REF_ARROW_ROUNDED -->
   <g transform="scale(0.0092592592)">
    <path d="M -9,0 L -9,-45 C -9,-51.708 2.808,-56.580 9,-54 L 117,-9 C 120.916,-7.369 126.000,-4.242 126,0 C 126,4.242 120.916,7.369 117,9 L 9,54 C 2.808,56.580 -9,51.708 -9,45 z"/>
   </g>
  </marker>
  <marker id="DefaultArrow5" markerUnits="strokeWidth" viewBox="0 0 1 1" markerWidth="1" markerHeight="1" overflow="visible" orient="auto">
   <!-- REF_ARROW_SPOT -->
   <g transform="scale(0.0092592592)">
    <path d="M -54, 0 C -54,29.807 -29.807,54 0,54 C 29.807,54 54,29.807 54,0 C 54,-29.807 29.807,-54 0,-54 C -29.807,-54 -54,-29.807 -54,0 z"/>
   </g>
  </marker>
  <marker id="DefaultArrow6" markerUnits="strokeWidth" viewBox="0 0 1 1" markerWidth="1" markerHeight="1" overflow="visible" orient="auto">
   <!-- REF_ARROW_DIAMOND -->
   <g transform="scale(0.0092592592)">
    <path d="M -63,0 L 0,63 L 63,0 L 0,-63 z"/>
   </g>
  </marker>
  <marker id="DefaultArrow7" markerUnits="strokeWidth" viewBox="0 0 1 1" markerWidth="1" markerHeight="1" overflow="visible" orient="auto">
   <!-- REF_ARROW_FEATHER -->
   <g transform="scale(0.0092592592)">
    <path d="M 18,-54 L 108,-54 L 63,0 L 108,54 L 18, 54 L -36,0 z"/>
   </g>
  </marker>
  <marker id="DefaultArrow8" markerUnits="strokeWidth" viewBox="0 0 1 1" markerWidth="1" markerHeight="1" overflow="visible" orient="auto">
   <!-- REF_ARROW_FEATHER2 -->
   <g transform="scale(0.0092592592)">
    <path d="M -36,0 L 18,-54 L 54,-54 L 18,-18 L 27,-18 L 63,-54 L 99,-54 L 63,-18 L 72,-18 L 108,-54 L 144,-54 L 90,0 L 144,54 L 108,54 L 72,18 L 63,18 L 99,54 L 63,54 L 27,18 L 18,18 L 54,54 L 18,54 z"/>
   </g>
  </marker>
  <marker id="DefaultArrow9" markerUnits="strokeWidth" viewBox="0 0 1 1" markerWidth="1" markerHeight="1" overflow="visible" orient="auto">
   <!-- REF_ARROW_HOLLOWDIAMOND -->
   <g transform="scale(0.0092592592)">
    <path d="M 0,45 L -45,0 L 0, -45 L 45, 0 z M 0, 63 L-63, 0 L 0, -63 L 63, 0 z"/>
   </g>
  </marker>
  <filter id="StainedFilter">
   <feBlend mode="multiply" in2="BackgroundImage" in="SourceGraphic" result="blend"/>
   <feComposite in="blend" in2="SourceAlpha" operator="in" result="comp"/>
  </filter>
  <filter id="BleachFilter">
   <feBlend mode="screen" in2="BackgroundImage" in="SourceGraphic" result="blend"/>
   <feComposite in="blend" in2="SourceAlpha" operator="in" result="comp"/>
  </filter>
  <filter id="InvertTransparencyBitmapFilter">
   <feComponentTransfer>
    <feFuncR type="gamma" amplitude="1.055" exponent=".416666666" offset="-0.055"/>
    <feFuncG type="gamma" amplitude="1.055" exponent=".416666666" offset="-0.055"/>
    <feFuncB type="gamma" amplitude="1.055" exponent=".416666666" offset="-0.055"/>
   </feComponentTransfer>
   <feComponentTransfer>
    <feFuncR type="linear" slope="-1" intercept="1"/>
    <feFuncG type="linear" slope="-1" intercept="1"/>
    <feFuncB type="linear" slope="-1" intercept="1"/>
    <feFuncA type="linear" slope="1" intercept="0"/>
   </feComponentTransfer>
   <feComponentTransfer>
    <feFuncR type="gamma" amplitude="1" exponent="2.4" offset="0"/>
    <feFuncG type="gamma" amplitude="1" exponent="2.4" offset="0"/>
    <feFuncB type="gamma" amplitude="1" exponent="2.4" offset="0"/>
   </feComponentTransfer>
  </filter>
 </defs>
 <g id="Document" fill="none" stroke="black" font-family="Times New Roman" font-size="16" transform="scale(1 -1)">
  <g id="Spread" transform="translate(0 -111)">
   <g id="Layer 1">
    <path d="M 0,111.074 L 0,0.076 L 110.998,0.076 L 110.998,111.074 L 0,111.074 Z" fill="#001040" stroke-width="1" stroke="none" marker-start="none" marker-end="none" stroke-miterlimit="79.8403193612775"/>
    <path d="M 91.928,111.099 L 93.616,0.099" fill="none" stroke-width="0.375" stroke="#484c7d" stroke-miterlimit="79.8403193612775"/>
    <path d="M 0.053,49.097 C 37.115,48.092 74.179,47.938 111.241,48.909" fill="none" stroke-width="0.375" stroke="#484c7d" stroke-miterlimit="79.8403193612775"/>
    <path d="M 51.803,111.099 L 51.616,33.849 L 74.213,33.902 L 74.213,6.302 L 101.513,6.677 L 101.588,0.002" fill="none" stroke="#007fff" stroke-opacity="0.490196" stroke-width="0.375" stroke-miterlimit="79.8403193612775"/>
    <path d="M 55.798,55.542 L 64.048,111.042" fill="none" stroke-dasharray="0.5 0.5" stroke-dashoffset="0" stroke-width="0.25" stroke="#ff5ad6" stroke-miterlimit="79.8403193612775"/>
    <path d="M 55.648,55.542 L 110.998,54.792" fill="none" stroke-width="0.25" stroke="#ff5ad6" stroke-miterlimit="79.8403193612775"/>
    <path d="M 54.847,54.883 C 54.421,55.309 54.421,56.002 54.847,56.428 C 55.274,56.856 55.969,56.856 56.396,56.428 C 56.822,56.002 56.822,55.309 56.396,54.883 C 55.969,54.455 55.274,54.455 54.847,54.883 Z" stroke-linejoin="miter" stroke-width="2.414" stroke="none" fill="#e5e5e5" marker-start="none" marker-end="none" stroke-miterlimit="79.8403193612775"/>
    <g id="Group" fill="#49a4ff" stroke="none" stroke-width="0.168" stroke-miterlimit="79.8403193612775">
     <g id="Group_1">
      <path d="M 70.459,71.88 L 70.459,75.807 L 71.94,75.807 C 72.201,75.807 72.4,75.794 72.538,75.769 C 72.731,75.737 72.892,75.676 73.023,75.586 C 73.153,75.496 73.258,75.369 73.337,75.207 C 73.417,75.044 73.457,74.866 73.457,74.671 C 73.457,74.337 73.35,74.054 73.138,73.823 C 72.925,73.592 72.541,73.476 71.986,73.476 L 70.979,73.476 L 70.979,71.88 L 70.459,71.88 Z M 70.979,73.94 L 71.994,73.94 C 72.33,73.94 72.568,74.002 72.709,74.127 C 72.85,74.252 72.921,74.428 72.921,74.655 C 72.921,74.819 72.879,74.96 72.796,75.077 C 72.713,75.194 72.604,75.271 72.468,75.309 C 72.381,75.332 72.219,75.343 71.983,75.343 L 70.979,75.343 L 70.979,73.94 Z" marker-start="none" marker-end="none"/>
      <path d="M 74.358,71.88 L 74.358,75.807 L 77.198,75.807 L 77.198,75.343 L 74.878,75.343 L 74.878,74.141 L 77.051,74.141 L 77.051,73.68 L 74.878,73.68 L 74.878,72.343 L 77.289,72.343 L 77.289,71.88 L 74.358,71.88 Z" marker-start="none" marker-end="none"/>
      <path d="M 80.075,73.42 L 80.075,73.881 L 81.738,73.883 L 81.738,72.426 C 81.483,72.222 81.219,72.069 80.948,71.967 C 80.676,71.864 80.398,71.813 80.112,71.813 C 79.726,71.813 79.376,71.895 79.061,72.06 C 78.745,72.226 78.507,72.464 78.347,72.777 C 78.186,73.09 78.106,73.439 78.106,73.824 C 78.106,74.207 78.185,74.563 78.345,74.895 C 78.505,75.226 78.735,75.472 79.035,75.633 C 79.335,75.793 79.681,75.874 80.072,75.874 C 80.356,75.874 80.613,75.828 80.842,75.736 C 81.072,75.644 81.252,75.516 81.382,75.352 C 81.512,75.187 81.611,74.973 81.679,74.709 L 81.21,74.58 C 81.151,74.78 81.078,74.937 80.991,75.051 C 80.903,75.166 80.778,75.257 80.616,75.326 C 80.453,75.395 80.273,75.429 80.075,75.429 C 79.837,75.429 79.632,75.393 79.458,75.321 C 79.285,75.248 79.145,75.153 79.039,75.035 C 78.933,74.918 78.85,74.788 78.791,74.647 C 78.691,74.404 78.641,74.141 78.641,73.857 C 78.641,73.506 78.702,73.214 78.822,72.978 C 78.943,72.742 79.118,72.567 79.349,72.453 C 79.579,72.339 79.824,72.281 80.083,72.281 C 80.308,72.281 80.527,72.325 80.742,72.411 C 80.956,72.498 81.118,72.59 81.229,72.689 L 81.229,73.42 L 80.075,73.42 Z" marker-start="none" marker-end="none"/>
      <path d="M 82.302,71.88 L 83.811,75.807 L 84.371,75.807 L 85.978,71.88 L 85.386,71.88 L 84.928,73.069 L 83.286,73.069 L 82.854,71.88 L 82.302,71.88 Z M 83.436,73.492 L 84.767,73.492 L 84.357,74.58 C 84.232,74.91 84.139,75.182 84.079,75.394 C 84.029,75.142 83.958,74.892 83.867,74.644 L 83.436,73.492 Z" marker-start="none" marker-end="none"/>
      <path d="M 86.446,73.141 L 86.936,73.184 C 86.959,72.988 87.013,72.827 87.098,72.701 C 87.183,72.575 87.315,72.473 87.493,72.395 C 87.672,72.318 87.873,72.279 88.096,72.279 C 88.294,72.279 88.469,72.308 88.621,72.367 C 88.773,72.426 88.886,72.507 88.96,72.61 C 89.034,72.712 89.071,72.824 89.071,72.946 C 89.071,73.069 89.036,73.177 88.964,73.269 C 88.893,73.36 88.775,73.438 88.611,73.5 C 88.505,73.541 88.272,73.605 87.911,73.692 C 87.551,73.778 87.298,73.86 87.153,73.937 C 86.966,74.035 86.826,74.157 86.734,74.303 C 86.642,74.448 86.596,74.611 86.596,74.792 C 86.596,74.99 86.652,75.175 86.765,75.347 C 86.877,75.52 87.042,75.651 87.258,75.74 C 87.474,75.829 87.714,75.874 87.978,75.874 C 88.269,75.874 88.526,75.827 88.749,75.733 C 88.971,75.639 89.142,75.501 89.262,75.319 C 89.381,75.137 89.445,74.931 89.454,74.701 L 88.956,74.663 C 88.929,74.911 88.839,75.099 88.684,75.226 C 88.53,75.352 88.302,75.416 88,75.416 C 87.685,75.416 87.456,75.358 87.313,75.243 C 87.169,75.128 87.097,74.989 87.097,74.826 C 87.097,74.685 87.148,74.569 87.25,74.478 C 87.35,74.387 87.611,74.294 88.033,74.198 C 88.456,74.103 88.745,74.019 88.903,73.948 C 89.131,73.842 89.3,73.709 89.409,73.547 C 89.518,73.386 89.572,73.199 89.572,72.989 C 89.572,72.78 89.513,72.583 89.393,72.398 C 89.273,72.213 89.101,72.069 88.877,71.967 C 88.653,71.864 88.401,71.813 88.12,71.813 C 87.765,71.813 87.467,71.864 87.227,71.968 C 86.987,72.072 86.798,72.227 86.662,72.435 C 86.525,72.644 86.453,72.879 86.446,73.141 Z" marker-start="none" marker-end="none"/>
      <path d="M 93.089,75.807 L 93.609,75.807 L 93.609,73.538 C 93.609,73.143 93.564,72.83 93.475,72.597 C 93.385,72.365 93.224,72.176 92.991,72.031 C 92.758,71.885 92.452,71.813 92.074,71.813 C 91.706,71.813 91.405,71.876 91.171,72.003 C 90.937,72.13 90.77,72.313 90.67,72.553 C 90.57,72.793 90.52,73.122 90.52,73.538 L 90.52,75.807 L 91.04,75.807 L 91.04,73.54 C 91.04,73.199 91.071,72.948 91.135,72.786 C 91.198,72.625 91.307,72.5 91.462,72.413 C 91.616,72.325 91.805,72.281 92.028,72.281 C 92.41,72.281 92.683,72.368 92.845,72.541 C 93.008,72.715 93.089,73.048 93.089,73.54 L 93.089,75.807 Z" marker-start="none" marker-end="none"/>
      <path d="M 94.527,73.141 L 95.017,73.184 C 95.04,72.988 95.094,72.827 95.179,72.701 C 95.264,72.575 95.396,72.473 95.574,72.395 C 95.753,72.318 95.954,72.279 96.177,72.279 C 96.375,72.279 96.55,72.308 96.702,72.367 C 96.854,72.426 96.967,72.507 97.041,72.61 C 97.115,72.712 97.152,72.824 97.152,72.946 C 97.152,73.069 97.117,73.177 97.045,73.269 C 96.974,73.36 96.856,73.438 96.692,73.5 C 96.586,73.541 96.353,73.605 95.992,73.692 C 95.632,73.778 95.379,73.86 95.234,73.937 C 95.047,74.035 94.907,74.157 94.815,74.303 C 94.723,74.448 94.677,74.611 94.677,74.792 C 94.677,74.99 94.733,75.175 94.846,75.347 C 94.958,75.52 95.123,75.651 95.339,75.74 C 95.555,75.829 95.795,75.874 96.059,75.874 C 96.35,75.874 96.607,75.827 96.83,75.733 C 97.052,75.639 97.223,75.501 97.343,75.319 C 97.462,75.137 97.526,74.931 97.535,74.701 L 97.037,74.663 C 97.01,74.911 96.92,75.099 96.765,75.226 C 96.611,75.352 96.383,75.416 96.081,75.416 C 95.766,75.416 95.537,75.358 95.394,75.243 C 95.25,75.128 95.178,74.989 95.178,74.826 C 95.178,74.685 95.229,74.569 95.331,74.478 C 95.431,74.387 95.692,74.294 96.114,74.198 C 96.537,74.103 96.826,74.019 96.984,73.948 C 97.212,73.842 97.381,73.709 97.49,73.547 C 97.599,73.386 97.653,73.199 97.653,72.989 C 97.653,72.78 97.594,72.583 97.474,72.398 C 97.354,72.213 97.182,72.069 96.958,71.967 C 96.734,71.864 96.482,71.813 96.201,71.813 C 95.846,71.813 95.548,71.864 95.308,71.968 C 95.068,72.072 94.879,72.227 94.743,72.435 C 94.606,72.644 94.534,72.879 94.527,73.141 Z" marker-start="none" marker-end="none"/>
     </g>
    </g>
    <g id="Group_2" fill="#49a4ff" stroke-width="0.168" stroke="none" stroke-miterlimit="79.8403193612775">
     <g id="Group_3">
      <path d="M 15.273,29.506 L 15.273,33.433 L 16.754,33.433 C 17.015,33.433 17.214,33.42 17.352,33.395 C 17.545,33.363 17.706,33.302 17.837,33.212 C 17.967,33.122 18.072,32.995 18.151,32.833 C 18.231,32.67 18.271,32.492 18.271,32.297 C 18.271,31.963 18.164,31.68 17.952,31.449 C 17.739,31.218 17.355,31.102 16.8,31.102 L 15.793,31.102 L 15.793,29.506 L 15.273,29.506 Z M 15.793,31.566 L 16.808,31.566 C 17.144,31.566 17.382,31.628 17.523,31.753 C 17.664,31.878 17.735,32.054 17.735,32.281 C 17.735,32.445 17.693,32.586 17.61,32.703 C 17.527,32.82 17.418,32.897 17.282,32.935 C 17.195,32.958 17.033,32.969 16.797,32.969 L 15.793,32.969 L 15.793,31.566 Z" marker-start="none" marker-end="none"/>
      <path d="M 19.25,29.506 L 19.25,33.433 L 19.77,33.433 L 19.77,29.506 L 19.25,29.506 Z" marker-start="none" marker-end="none"/>
      <path d="M 20.738,30.767 L 21.228,30.81 C 21.251,30.614 21.305,30.453 21.39,30.327 C 21.475,30.201 21.607,30.099 21.785,30.021 C 21.964,29.944 22.165,29.905 22.388,29.905 C 22.586,29.905 22.761,29.934 22.913,29.993 C 23.065,30.052 23.178,30.133 23.252,30.236 C 23.326,30.338 23.363,30.45 23.363,30.572 C 23.363,30.695 23.328,30.803 23.256,30.895 C 23.185,30.986 23.067,31.064 22.903,31.126 C 22.797,31.167 22.564,31.231 22.203,31.318 C 21.843,31.404 21.59,31.486 21.445,31.563 C 21.258,31.661 21.118,31.783 21.026,31.929 C 20.934,32.074 20.888,32.237 20.888,32.418 C 20.888,32.616 20.944,32.801 21.057,32.973 C 21.169,33.146 21.334,33.277 21.55,33.366 C 21.766,33.455 22.006,33.5 22.27,33.5 C 22.561,33.5 22.818,33.453 23.041,33.359 C 23.263,33.265 23.434,33.127 23.554,32.945 C 23.673,32.763 23.737,32.557 23.746,32.327 L 23.248,32.289 C 23.221,32.537 23.131,32.725 22.976,32.852 C 22.822,32.978 22.594,33.042 22.292,33.042 C 21.977,33.042 21.748,32.984 21.605,32.869 C 21.461,32.754 21.389,32.615 21.389,32.452 C 21.389,32.311 21.44,32.195 21.542,32.104 C 21.642,32.013 21.903,31.92 22.325,31.824 C 22.748,31.729 23.037,31.645 23.195,31.574 C 23.423,31.468 23.592,31.335 23.701,31.173 C 23.81,31.012 23.864,30.825 23.864,30.615 C 23.864,30.406 23.805,30.209 23.685,30.024 C 23.565,29.839 23.393,29.695 23.169,29.593 C 22.945,29.49 22.693,29.439 22.412,29.439 C 22.057,29.439 21.759,29.49 21.519,29.594 C 21.279,29.698 21.09,29.853 20.954,30.061 C 20.817,30.27 20.745,30.505 20.738,30.767 Z" marker-start="none" marker-end="none"/>
      <path d="M 27.606,30.882 L 28.126,30.751 C 28.017,30.324 27.821,29.999 27.538,29.775 C 27.255,29.551 26.909,29.439 26.5,29.439 C 26.076,29.439 25.732,29.525 25.467,29.697 C 25.202,29.869 25,30.119 24.861,30.446 C 24.723,30.773 24.654,31.124 24.654,31.499 C 24.654,31.908 24.732,32.264 24.888,32.569 C 25.044,32.873 25.267,33.105 25.555,33.263 C 25.844,33.421 26.161,33.5 26.508,33.5 C 26.901,33.5 27.231,33.4 27.499,33.2 C 27.767,33 27.953,32.718 28.059,32.356 L 27.547,32.235 C 27.456,32.521 27.324,32.729 27.151,32.86 C 26.977,32.99 26.759,33.055 26.497,33.055 C 26.195,33.055 25.943,32.983 25.74,32.838 C 25.537,32.694 25.395,32.499 25.313,32.255 C 25.231,32.012 25.19,31.76 25.19,31.501 C 25.19,31.167 25.238,30.876 25.336,30.627 C 25.433,30.377 25.584,30.191 25.79,30.068 C 25.995,29.945 26.217,29.883 26.457,29.883 C 26.748,29.883 26.994,29.967 27.196,30.135 C 27.398,30.303 27.535,30.552 27.606,30.882 Z" marker-start="none" marker-end="none"/>
      <path d="M 29.006,29.506 L 29.006,33.433 L 31.846,33.433 L 31.846,32.969 L 29.526,32.969 L 29.526,31.767 L 31.699,31.767 L 31.699,31.306 L 29.526,31.306 L 29.526,29.969 L 31.937,29.969 L 31.937,29.506 L 29.006,29.506 Z" marker-start="none" marker-end="none"/>
      <path d="M 32.708,30.767 L 33.198,30.81 C 33.221,30.614 33.275,30.453 33.36,30.327 C 33.445,30.201 33.577,30.099 33.755,30.021 C 33.934,29.944 34.135,29.905 34.358,29.905 C 34.556,29.905 34.731,29.934 34.883,29.993 C 35.035,30.052 35.148,30.133 35.222,30.236 C 35.296,30.338 35.333,30.45 35.333,30.572 C 35.333,30.695 35.298,30.803 35.226,30.895 C 35.155,30.986 35.037,31.064 34.873,31.126 C 34.767,31.167 34.534,31.231 34.173,31.318 C 33.813,31.404 33.56,31.486 33.415,31.563 C 33.228,31.661 33.088,31.783 32.996,31.929 C 32.904,32.074 32.858,32.237 32.858,32.418 C 32.858,32.616 32.914,32.801 33.027,32.973 C 33.139,33.146 33.304,33.277 33.52,33.366 C 33.736,33.455 33.976,33.5 34.24,33.5 C 34.531,33.5 34.788,33.453 35.011,33.359 C 35.233,33.265 35.404,33.127 35.524,32.945 C 35.643,32.763 35.707,32.557 35.716,32.327 L 35.218,32.289 C 35.191,32.537 35.101,32.725 34.946,32.852 C 34.792,32.978 34.564,33.042 34.262,33.042 C 33.947,33.042 33.718,32.984 33.575,32.869 C 33.431,32.754 33.359,32.615 33.359,32.452 C 33.359,32.311 33.41,32.195 33.512,32.104 C 33.612,32.013 33.873,31.92 34.295,31.824 C 34.718,31.729 35.007,31.645 35.165,31.574 C 35.393,31.468 35.562,31.335 35.671,31.173 C 35.78,31.012 35.834,30.825 35.834,30.615 C 35.834,30.406 35.775,30.209 35.655,30.024 C 35.535,29.839 35.363,29.695 35.139,29.593 C 34.915,29.49 34.663,29.439 34.382,29.439 C 34.027,29.439 33.729,29.49 33.489,29.594 C 33.249,29.698 33.06,29.853 32.924,30.061 C 32.787,30.27 32.715,30.505 32.708,30.767 Z" marker-start="none" marker-end="none"/>
     </g>
    </g>
    <g id="Group_4" stroke="none" stroke-width="0.226" fill="#a0cfff" stroke-miterlimit="79.8403193612775">
     <g id="Group_5">
      <path d="M 78.104,106.937 C 78.095,107.411 78.137,107.794 78.229,108.086 C 78.322,108.377 78.463,108.603 78.652,108.763 C 78.842,108.924 79.083,109.007 79.375,109.012 C 79.591,109.016 79.78,108.976 79.944,108.892 C 80.108,108.809 80.245,108.686 80.354,108.525 C 80.463,108.363 80.55,108.166 80.614,107.932 C 80.679,107.699 80.714,107.383 80.722,106.985 C 80.73,106.514 80.689,106.133 80.598,105.842 C 80.506,105.551 80.366,105.324 80.176,105.163 C 79.986,105.001 79.745,104.918 79.451,104.912 C 79.064,104.905 78.757,105.038 78.531,105.312 C 78.26,105.641 78.118,106.183 78.104,106.937 Z M 78.61,106.946 C 78.623,106.287 78.708,105.85 78.866,105.634 C 79.024,105.419 79.217,105.314 79.443,105.318 C 79.67,105.322 79.858,105.435 80.008,105.657 C 80.158,105.879 80.227,106.318 80.215,106.976 C 80.203,107.637 80.118,108.074 79.96,108.289 C 79.801,108.503 79.607,108.608 79.377,108.604 C 79.151,108.6 78.972,108.501 78.84,108.306 C 78.675,108.059 78.598,107.605 78.61,106.946 Z" marker-start="none" marker-end="none"/>
      <path d="M 81.396,105.016 L 81.322,109.031 L 81.815,109.04 L 81.842,107.6 C 82.067,107.87 82.355,108.009 82.705,108.015 C 82.921,108.019 83.109,107.98 83.269,107.898 C 83.429,107.816 83.545,107.701 83.616,107.553 C 83.688,107.404 83.726,107.188 83.731,106.903 L 83.765,105.06 L 83.272,105.051 L 83.238,106.894 C 83.234,107.14 83.177,107.319 83.068,107.429 C 82.959,107.539 82.807,107.593 82.612,107.589 C 82.466,107.586 82.329,107.546 82.202,107.468 C 82.074,107.39 81.984,107.285 81.932,107.155 C 81.88,107.024 81.856,106.845 81.86,106.616 L 81.889,105.025 L 81.396,105.016 Z" marker-start="none" marker-end="none"/>
      <path d="M 84.343,107.051 C 84.334,107.525 84.376,107.908 84.468,108.2 C 84.561,108.491 84.702,108.717 84.891,108.877 C 85.081,109.038 85.322,109.121 85.614,109.126 C 85.83,109.13 86.019,109.09 86.183,109.006 C 86.347,108.923 86.484,108.8 86.593,108.639 C 86.702,108.477 86.789,108.28 86.853,108.046 C 86.918,107.813 86.953,107.497 86.961,107.099 C 86.969,106.628 86.928,106.247 86.837,105.956 C 86.745,105.665 86.605,105.438 86.415,105.277 C 86.225,105.115 85.984,105.032 85.69,105.026 C 85.303,105.019 84.996,105.152 84.77,105.426 C 84.499,105.755 84.357,106.297 84.343,107.051 Z M 84.849,107.06 C 84.862,106.401 84.947,105.964 85.105,105.748 C 85.263,105.533 85.456,105.428 85.682,105.432 C 85.909,105.436 86.097,105.549 86.247,105.771 C 86.397,105.993 86.466,106.432 86.454,107.09 C 86.442,107.751 86.357,108.188 86.199,108.403 C 86.04,108.617 85.846,108.722 85.616,108.718 C 85.39,108.714 85.211,108.615 85.079,108.42 C 84.914,108.173 84.837,107.719 84.849,107.06 Z" marker-start="none" marker-end="none"/>
      <path d="M 87.462,107.109 C 87.453,107.583 87.495,107.966 87.587,108.258 C 87.68,108.549 87.821,108.775 88.01,108.935 C 88.2,109.096 88.441,109.179 88.733,109.184 C 88.949,109.188 89.138,109.148 89.302,109.064 C 89.466,108.981 89.603,108.858 89.712,108.697 C 89.821,108.535 89.908,108.338 89.972,108.104 C 90.037,107.871 90.072,107.555 90.08,107.157 C 90.088,106.686 90.047,106.305 89.956,106.014 C 89.864,105.723 89.724,105.496 89.534,105.335 C 89.344,105.173 89.103,105.09 88.809,105.084 C 88.422,105.077 88.115,105.21 87.889,105.484 C 87.618,105.813 87.476,106.355 87.462,107.109 Z M 87.968,107.118 C 87.981,106.459 88.066,106.022 88.224,105.806 C 88.382,105.591 88.575,105.486 88.801,105.49 C 89.028,105.494 89.216,105.607 89.366,105.829 C 89.516,106.051 89.585,106.49 89.573,107.148 C 89.561,107.809 89.476,108.246 89.318,108.461 C 89.159,108.675 88.965,108.78 88.735,108.776 C 88.509,108.772 88.33,108.673 88.198,108.478 C 88.033,108.231 87.956,107.777 87.968,107.118 Z" marker-start="none" marker-end="none"/>
     </g>
    </g>
    <g id="Group_6" stroke="none" stroke-width="0.226" fill="#a0cfff" stroke-miterlimit="79.8403193612775">
     <g id="Group_7">
      <path d="M 3.583,42.304 L 3.576,43.405 L 2.483,43.399 L 2.481,43.859 L 3.574,43.865 L 3.567,44.958 L 4.033,44.961 L 4.039,43.868 L 5.132,43.874 L 5.135,43.414 L 4.042,43.408 L 4.048,42.307 L 3.583,42.304 Z" marker-start="none" marker-end="none"/>
      <path d="M 7.547,41.678 L 7.054,41.675 L 7.036,44.817 C 6.918,44.703 6.763,44.589 6.571,44.474 C 6.379,44.36 6.206,44.274 6.053,44.216 L 6.051,44.693 C 6.326,44.824 6.566,44.983 6.771,45.168 C 6.976,45.354 7.121,45.534 7.206,45.708 L 7.524,45.71 L 7.547,41.678 Z" marker-start="none" marker-end="none"/>
      <path d="M 8.804,42.738 L 9.322,42.785 C 9.361,42.533 9.452,42.344 9.592,42.218 C 9.732,42.092 9.901,42.029 10.098,42.03 C 10.336,42.032 10.536,42.122 10.699,42.302 C 10.863,42.482 10.944,42.72 10.942,43.016 C 10.94,43.297 10.86,43.519 10.701,43.68 C 10.542,43.842 10.335,43.922 10.079,43.92 C 9.92,43.919 9.777,43.882 9.65,43.81 C 9.522,43.737 9.423,43.642 9.35,43.527 L 8.887,43.585 L 9.264,45.649 L 11.26,45.661 L 11.263,45.19 L 9.661,45.181 L 9.451,44.1 C 9.691,44.27 9.943,44.355 10.208,44.357 C 10.559,44.359 10.855,44.239 11.098,43.997 C 11.34,43.756 11.462,43.444 11.465,43.063 C 11.467,42.699 11.363,42.385 11.153,42.119 C 10.897,41.792 10.546,41.628 10.101,41.625 C 9.736,41.623 9.437,41.723 9.205,41.927 C 8.972,42.13 8.839,42.4 8.804,42.738 Z" marker-start="none" marker-end="none"/>
      <path d="M 12.029,45.03 C 12.027,45.24 12.101,45.419 12.249,45.568 C 12.397,45.717 12.575,45.792 12.783,45.793 C 12.995,45.794 13.175,45.721 13.324,45.574 C 13.473,45.427 13.548,45.249 13.549,45.039 C 13.55,44.829 13.477,44.649 13.329,44.499 C 13.181,44.35 13.002,44.274 12.792,44.273 C 12.584,44.272 12.405,44.345 12.255,44.492 C 12.105,44.639 12.03,44.818 12.029,45.03 Z M 12.327,45.032 C 12.328,44.904 12.374,44.795 12.465,44.705 C 12.556,44.615 12.665,44.571 12.793,44.571 C 12.919,44.572 13.027,44.618 13.116,44.709 C 13.206,44.8 13.251,44.909 13.25,45.037 C 13.249,45.165 13.204,45.274 13.113,45.364 C 13.022,45.453 12.913,45.498 12.787,45.497 C 12.659,45.496 12.551,45.451 12.461,45.36 C 12.371,45.269 12.326,45.159 12.327,45.032 Z" marker-start="none" marker-end="none"/>
     </g>
    </g>
    <g id="Group_8" stroke="none" stroke-width="0.25" fill="#7bbdff" stroke-miterlimit="79.8403193612775">
     <g id="Group_9">
      <path d="M 61.236,62.968 L 62.042,62.968 C 61.99,62.786 61.728,62.277 61.255,61.441 C 61.175,61.141 61.1,60.907 61.03,60.739 C 60.994,60.656 60.955,60.569 60.914,60.48 L 60.465,59.522 C 60.482,59.369 60.495,59.216 60.504,59.063 C 60.512,58.909 60.516,58.78 60.516,58.676 C 60.516,58.31 60.489,58.024 60.433,57.818 C 60.391,57.663 60.333,57.553 60.257,57.489 C 60.182,57.426 60.099,57.394 60.007,57.394 C 59.893,57.394 59.795,57.439 59.713,57.53 C 59.63,57.621 59.589,57.736 59.589,57.876 C 59.589,58.09 59.631,58.332 59.715,58.604 C 59.798,58.875 59.92,59.172 60.079,59.493 C 59.886,60.829 59.736,61.627 59.629,61.889 C 59.521,62.151 59.384,62.281 59.218,62.281 C 59.118,62.281 59.039,62.251 58.981,62.19 C 58.923,62.129 58.873,61.951 58.832,61.656 L 58.524,61.656 C 58.52,61.789 58.518,61.876 58.518,61.918 C 58.518,62.303 58.595,62.596 58.75,62.796 C 58.875,62.956 59.043,63.035 59.254,63.035 C 59.436,63.035 59.572,62.988 59.663,62.894 C 59.839,62.729 59.983,62.413 60.096,61.944 C 60.234,61.353 60.327,60.734 60.374,60.086 L 60.607,61.208 C 60.765,61.743 60.975,62.329 61.236,62.968 Z" marker-start="none" marker-end="none"/>
     </g>
    </g>
    <g id="Group_10" stroke="none" stroke-width="0.264" fill="#dddddd" stroke-miterlimit="79.8403193612775">
     <g id="Group_11">
      <path d="M 53.836,48.46 L 55.378,52.474 L 55.95,52.474 L 57.594,48.46 L 56.988,48.46 L 56.52,49.675 L 54.841,49.675 L 54.4,48.46 L 53.836,48.46 Z M 54.995,50.108 L 56.356,50.108 L 55.937,51.22 C 55.809,51.558 55.714,51.835 55.652,52.052 C 55.601,51.795 55.529,51.539 55.436,51.286 L 54.995,50.108 Z" marker-start="none" marker-end="none"/>
      <path d="M 57.944,48.46 L 57.944,52.474 L 58.437,52.474 L 58.437,48.46 L 57.944,48.46 Z" marker-start="none" marker-end="none"/>
      <path d="M 59.111,48.218 L 59.59,48.147 C 59.61,47.999 59.666,47.892 59.757,47.824 C 59.879,47.733 60.046,47.687 60.258,47.687 C 60.486,47.687 60.663,47.733 60.787,47.824 C 60.911,47.915 60.995,48.043 61.039,48.208 C 61.064,48.308 61.076,48.519 61.074,48.84 C 60.859,48.586 60.591,48.46 60.269,48.46 C 59.869,48.46 59.56,48.604 59.341,48.892 C 59.122,49.181 59.012,49.527 59.012,49.93 C 59.012,50.208 59.062,50.464 59.163,50.698 C 59.263,50.933 59.409,51.114 59.6,51.242 C 59.79,51.37 60.015,51.434 60.272,51.434 C 60.615,51.434 60.898,51.295 61.121,51.017 L 61.121,51.368 L 61.576,51.368 L 61.576,48.854 C 61.575,48.401 61.529,48.08 61.437,47.891 C 61.345,47.702 61.199,47.553 60.999,47.444 C 60.799,47.334 60.553,47.279 60.261,47.279 C 59.914,47.279 59.634,47.357 59.42,47.513 C 59.207,47.669 59.104,47.904 59.111,48.218 Z M 59.519,49.966 C 59.519,49.584 59.595,49.306 59.746,49.13 C 59.898,48.955 60.088,48.868 60.316,48.868 C 60.542,48.868 60.732,48.955 60.885,49.129 C 61.039,49.303 61.115,49.577 61.115,49.949 C 61.115,50.305 61.037,50.574 60.879,50.754 C 60.721,50.935 60.53,51.025 60.308,51.025 C 60.088,51.025 59.902,50.937 59.749,50.759 C 59.596,50.581 59.519,50.316 59.519,49.966 Z" marker-start="none" marker-end="none"/>
      <path d="M 64.311,49.396 L 64.821,49.333 C 64.74,49.035 64.591,48.805 64.374,48.64 C 64.157,48.476 63.879,48.394 63.542,48.394 C 63.116,48.394 62.779,48.525 62.53,48.787 C 62.281,49.049 62.156,49.416 62.156,49.889 C 62.156,50.378 62.282,50.758 62.534,51.028 C 62.786,51.298 63.113,51.434 63.514,51.434 C 63.903,51.434 64.221,51.301 64.467,51.036 C 64.714,50.772 64.837,50.399 64.837,49.919 C 64.837,49.89 64.836,49.846 64.834,49.788 L 62.665,49.788 C 62.684,49.468 62.774,49.224 62.936,49.054 C 63.099,48.884 63.301,48.799 63.544,48.799 C 63.725,48.799 63.879,48.847 64.007,48.942 C 64.135,49.036 64.236,49.188 64.311,49.396 Z M 62.693,50.193 L 64.317,50.193 C 64.295,50.438 64.233,50.621 64.13,50.743 C 63.973,50.933 63.77,51.028 63.52,51.028 C 63.293,51.028 63.103,50.952 62.949,50.801 C 62.794,50.649 62.709,50.447 62.693,50.193 Z" marker-start="none" marker-end="none"/>
      <path d="M 65.439,48.46 L 65.439,51.368 L 65.883,51.368 L 65.883,50.954 C 66.096,51.274 66.405,51.434 66.808,51.434 C 66.984,51.434 67.145,51.402 67.292,51.339 C 67.439,51.276 67.549,51.193 67.622,51.091 C 67.695,50.989 67.746,50.868 67.775,50.727 C 67.793,50.636 67.803,50.476 67.803,50.248 L 67.803,48.46 L 67.31,48.46 L 67.31,50.229 C 67.31,50.429 67.29,50.58 67.252,50.679 C 67.214,50.779 67.146,50.858 67.048,50.917 C 66.95,50.977 66.836,51.006 66.704,51.006 C 66.494,51.006 66.313,50.94 66.161,50.806 C 66.008,50.673 65.932,50.42 65.932,50.048 L 65.932,48.46 L 65.439,48.46 Z" marker-start="none" marker-end="none"/>
      <path d="M 68.561,51.907 L 68.561,52.474 L 69.054,52.474 L 69.054,51.907 L 68.561,51.907 Z M 68.561,48.46 L 68.561,51.368 L 69.054,51.368 L 69.054,48.46 L 68.561,48.46 Z" marker-start="none" marker-end="none"/>
      <path d="M 70.259,48.46 L 69.801,48.46 L 69.801,52.474 L 70.294,52.474 L 70.294,51.042 C 70.503,51.303 70.768,51.434 71.091,51.434 C 71.27,51.434 71.44,51.398 71.599,51.325 C 71.759,51.253 71.89,51.152 71.994,51.021 C 72.097,50.891 72.178,50.733 72.236,50.549 C 72.294,50.365 72.324,50.167 72.324,49.957 C 72.324,49.459 72.2,49.074 71.954,48.802 C 71.707,48.53 71.412,48.394 71.067,48.394 C 70.723,48.394 70.454,48.537 70.259,48.824 L 70.259,48.46 Z M 70.253,49.936 C 70.253,49.587 70.301,49.335 70.396,49.18 C 70.551,48.926 70.761,48.799 71.026,48.799 C 71.241,48.799 71.427,48.893 71.584,49.08 C 71.741,49.267 71.82,49.546 71.82,49.916 C 71.82,50.296 71.744,50.576 71.594,50.757 C 71.443,50.938 71.261,51.028 71.047,51.028 C 70.832,51.028 70.646,50.935 70.489,50.748 C 70.332,50.56 70.253,50.29 70.253,49.936 Z" marker-start="none" marker-end="none"/>
     </g>
    </g>
    <path d="M 52.015,109.8 C 51.765,110.051 51.765,110.458 52.015,110.709 C 52.266,110.961 52.675,110.961 52.926,110.709 C 53.177,110.458 53.177,110.051 52.926,109.8 C 52.675,109.548 52.266,109.548 52.015,109.8 Z" stroke-linejoin="miter" stroke-width="1.42" stroke="none" fill="#e5e5e5" marker-start="none" marker-end="none" stroke-miterlimit="79.8403193612775"/>
    <g id="Group_12" stroke="none" stroke-width="0.25" fill="#7bbdff" stroke-miterlimit="79.8403193612775">
     <g id="Group_13">
      <path d="M 57.886,109.318 L 56.4,106.327 L 56.652,105.344 C 56.752,104.944 56.847,104.699 56.937,104.609 C 57.027,104.519 57.147,104.474 57.297,104.474 C 57.473,104.474 57.612,104.524 57.715,104.623 C 57.818,104.723 57.881,104.913 57.905,105.195 L 58.208,105.195 C 58.214,105.055 58.216,104.977 58.216,104.962 C 58.216,104.606 58.112,104.299 57.904,104.041 C 57.746,103.843 57.548,103.744 57.309,103.744 C 57.142,103.744 56.993,103.787 56.864,103.874 C 56.735,103.961 56.629,104.088 56.548,104.257 C 56.427,104.515 56.346,104.732 56.303,104.91 L 56.101,105.887 L 55.12,103.82 L 54.29,103.82 L 55.815,106.915 L 55.522,108.06 C 55.462,108.302 55.395,108.457 55.32,108.523 C 55.246,108.59 55.139,108.623 54.998,108.623 C 54.843,108.623 54.719,108.575 54.625,108.479 C 54.531,108.383 54.472,108.196 54.449,107.918 L 54.15,107.918 C 54.161,108.46 54.311,108.865 54.6,109.132 C 54.647,109.301 54.786,109.385 55.018,109.385 C 55.257,109.385 55.443,109.302 55.575,109.135 C 55.707,108.968 55.804,108.755 55.868,108.495 L 56.109,107.348 L 57.033,109.318 L 57.886,109.318 Z" marker-start="none" marker-end="none"/>
     </g>
    </g>
    <g id="Group_14" stroke="none" stroke-width="0.25" fill="#7bbdff" stroke-miterlimit="79.8403193612775">
     <g id="Group_15">
      <path d="M 105.588,101.316 C 106.091,101.26 106.487,101.045 106.778,100.67 C 107.068,100.294 107.213,99.849 107.213,99.332 C 107.213,99.096 107.179,98.866 107.11,98.644 C 107.041,98.422 106.95,98.227 106.838,98.06 C 106.726,97.892 106.6,97.753 106.46,97.642 C 106.32,97.532 106.174,97.45 106.024,97.397 C 105.888,97.352 105.743,97.32 105.588,97.302 L 105.588,95.644 L 104.975,95.644 L 104.975,97.3 C 104.607,97.337 104.292,97.467 104.032,97.691 C 103.58,98.076 103.354,98.611 103.354,99.296 C 103.354,99.564 103.389,99.806 103.458,100.021 C 103.527,100.236 103.62,100.426 103.738,100.59 C 103.857,100.754 103.986,100.888 104.126,100.992 C 104.266,101.096 104.416,101.175 104.577,101.229 C 104.692,101.267 104.824,101.296 104.975,101.315 L 104.975,103.233 L 105.588,103.233 L 105.588,101.316 Z M 104.975,100.918 C 104.878,100.878 104.747,100.82 104.581,100.742 C 104.526,100.644 104.455,100.489 104.368,100.279 C 104.281,100.069 104.238,99.78 104.238,99.412 C 104.238,99.001 104.289,98.668 104.392,98.412 C 104.495,98.157 104.62,97.966 104.767,97.842 C 104.834,97.782 104.904,97.733 104.975,97.695 L 104.975,100.918 Z M 105.588,97.695 C 105.671,97.726 105.742,97.746 105.8,97.755 C 105.974,97.926 106.103,98.119 106.189,98.333 C 106.275,98.548 106.318,98.852 106.318,99.244 C 106.318,99.604 106.278,99.907 106.2,100.152 C 106.121,100.398 106.013,100.584 105.878,100.713 C 105.791,100.795 105.694,100.863 105.588,100.918 L 105.588,97.695 Z" marker-start="none" marker-end="none"/>
     </g>
    </g>
    <path d="M 109.165,99 C 108.915,99.251 108.915,99.658 109.165,99.909 C 109.416,100.161 109.825,100.161 110.076,99.909 C 110.327,99.658 110.327,99.251 110.076,99 C 109.825,98.748 109.416,98.748 109.165,99 Z" stroke-linejoin="miter" stroke-width="1.42" stroke="none" fill="#e5e5e5" marker-start="none" marker-end="none" stroke-miterlimit="79.8403193612775"/>
    <g id="Group_16" fill="#7bbdff" stroke-width="0.165" stroke="none" stroke-miterlimit="79.8403193612775">
     <g id="Group_17">
      <path d="M 70.283,89.741 C 70.081,89.815 69.931,89.92 69.833,90.058 C 69.736,90.195 69.687,90.359 69.687,90.551 C 69.687,90.84 69.791,91.082 69.999,91.279 C 70.206,91.476 70.483,91.574 70.827,91.574 C 71.174,91.574 71.453,91.474 71.664,91.272 C 71.876,91.071 71.981,90.826 71.981,90.537 C 71.981,90.353 71.933,90.193 71.836,90.056 C 71.74,89.92 71.593,89.815 71.396,89.741 C 71.64,89.661 71.825,89.533 71.953,89.356 C 72.08,89.179 72.144,88.968 72.144,88.722 C 72.144,88.383 72.024,88.098 71.783,87.866 C 71.543,87.635 71.227,87.52 70.835,87.52 C 70.444,87.52 70.128,87.636 69.888,87.868 C 69.647,88.1 69.527,88.389 69.527,88.736 C 69.527,88.994 69.593,89.21 69.724,89.385 C 69.855,89.559 70.041,89.678 70.283,89.741 Z M 70.185,90.567 C 70.185,90.379 70.246,90.226 70.367,90.106 C 70.488,89.987 70.645,89.928 70.838,89.928 C 71.026,89.928 71.18,89.987 71.3,90.105 C 71.42,90.223 71.48,90.368 71.48,90.54 C 71.48,90.718 71.418,90.869 71.295,90.991 C 71.171,91.113 71.017,91.174 70.833,91.174 C 70.647,91.174 70.492,91.114 70.37,90.995 C 70.247,90.876 70.185,90.733 70.185,90.567 Z M 70.028,88.733 C 70.028,88.594 70.061,88.46 70.127,88.33 C 70.193,88.2 70.291,88.099 70.421,88.028 C 70.551,87.956 70.691,87.921 70.841,87.921 C 71.074,87.921 71.266,87.996 71.418,88.145 C 71.569,88.295 71.645,88.486 71.645,88.717 C 71.645,88.952 71.567,89.146 71.411,89.299 C 71.255,89.453 71.059,89.529 70.825,89.529 C 70.595,89.529 70.405,89.454 70.255,89.302 C 70.104,89.15 70.028,88.961 70.028,88.733 Z" marker-start="none" marker-end="none"/>
      <path d="M 72.651,91.038 L 72.651,91.507 L 75.222,91.507 L 75.222,91.127 C 74.969,90.858 74.718,90.501 74.47,90.055 C 74.222,89.609 74.03,89.15 73.894,88.679 C 73.797,88.347 73.735,87.983 73.708,87.588 L 73.206,87.588 C 73.212,87.9 73.273,88.277 73.391,88.72 C 73.508,89.162 73.676,89.589 73.896,89.999 C 74.115,90.41 74.349,90.756 74.596,91.038 L 72.651,91.038 Z" marker-start="none" marker-end="none"/>
     </g>
    </g>
    <path d="M 66.415,88.8 C 66.165,89.051 66.165,89.458 66.415,89.709 C 66.666,89.961 67.075,89.961 67.326,89.709 C 67.577,89.458 67.577,89.051 67.326,88.8 C 67.075,88.548 66.666,88.548 66.415,88.8 Z" stroke-linejoin="miter" stroke-width="1.42" stroke="none" fill="#e5e5e5" marker-start="none" marker-end="none" stroke-miterlimit="79.8403193612775"/>
    <g id="Group_18" stroke="none" stroke-width="0.165" fill="#7bbdff" stroke-miterlimit="79.8403193612775">
     <g id="Group_19">
      <path d="M 20.995,84.138 L 20.995,85.088 L 19.273,85.088 L 19.273,85.535 L 21.085,88.108 L 21.483,88.108 L 21.483,85.535 L 22.019,85.535 L 22.019,85.088 L 21.483,85.088 L 21.483,84.138 L 20.995,84.138 Z M 20.995,85.535 L 20.995,87.325 L 19.752,85.535 L 20.995,85.535 Z" marker-start="none" marker-end="none"/>
      <path d="M 22.551,87.588 L 22.551,88.057 L 25.122,88.057 L 25.122,87.677 C 24.869,87.408 24.618,87.051 24.37,86.605 C 24.122,86.159 23.93,85.7 23.794,85.229 C 23.697,84.897 23.635,84.533 23.608,84.138 L 23.106,84.138 C 23.112,84.45 23.173,84.827 23.291,85.27 C 23.408,85.712 23.576,86.139 23.796,86.549 C 24.015,86.96 24.249,87.306 24.496,87.588 L 22.551,87.588 Z" marker-start="none" marker-end="none"/>
     </g>
    </g>
    <path d="M 16.315,85.35 C 16.065,85.601 16.065,86.008 16.315,86.259 C 16.566,86.511 16.975,86.511 17.226,86.259 C 17.477,86.008 17.477,85.601 17.226,85.35 C 16.975,85.098 16.566,85.098 16.315,85.35 Z" stroke-linejoin="miter" stroke-width="1.42" stroke="none" fill="#e5e5e5" marker-start="none" marker-end="none" stroke-miterlimit="79.8403193612775"/>
    <g id="Group_20" stroke="none" stroke-width="0.165" fill="#7bbdff" stroke-miterlimit="79.8403193612775">
     <g id="Group_21">
      <path d="M 79.433,36.641 C 79.231,36.715 79.081,36.82 78.983,36.958 C 78.886,37.095 78.837,37.259 78.837,37.451 C 78.837,37.74 78.941,37.982 79.149,38.179 C 79.356,38.376 79.633,38.474 79.977,38.474 C 80.324,38.474 80.603,38.374 80.814,38.172 C 81.026,37.971 81.131,37.726 81.131,37.437 C 81.131,37.253 81.083,37.093 80.986,36.956 C 80.89,36.82 80.743,36.715 80.546,36.641 C 80.79,36.561 80.975,36.433 81.103,36.256 C 81.23,36.079 81.294,35.868 81.294,35.622 C 81.294,35.283 81.174,34.998 80.933,34.766 C 80.693,34.535 80.377,34.42 79.985,34.42 C 79.594,34.42 79.278,34.536 79.038,34.768 C 78.797,35 78.677,35.289 78.677,35.636 C 78.677,35.894 78.743,36.11 78.874,36.285 C 79.005,36.459 79.191,36.578 79.433,36.641 Z M 79.335,37.467 C 79.335,37.279 79.396,37.126 79.517,37.006 C 79.638,36.887 79.795,36.828 79.988,36.828 C 80.176,36.828 80.33,36.887 80.45,37.005 C 80.57,37.123 80.63,37.268 80.63,37.44 C 80.63,37.618 80.568,37.769 80.445,37.891 C 80.321,38.013 80.167,38.074 79.983,38.074 C 79.797,38.074 79.642,38.014 79.52,37.895 C 79.397,37.776 79.335,37.633 79.335,37.467 Z M 79.178,35.633 C 79.178,35.494 79.211,35.36 79.277,35.23 C 79.343,35.1 79.441,34.999 79.571,34.928 C 79.701,34.856 79.841,34.821 79.991,34.821 C 80.224,34.821 80.416,34.896 80.568,35.045 C 80.719,35.195 80.795,35.386 80.795,35.617 C 80.795,35.852 80.717,36.046 80.561,36.199 C 80.405,36.353 80.209,36.429 79.975,36.429 C 79.745,36.429 79.555,36.354 79.405,36.202 C 79.254,36.05 79.178,35.861 79.178,35.633 Z" marker-start="none" marker-end="none"/>
      <path d="M 84.298,37.486 L 83.814,37.448 C 83.77,37.639 83.709,37.778 83.629,37.865 C 83.498,38.004 83.335,38.074 83.142,38.074 C 82.987,38.074 82.85,38.03 82.733,37.944 C 82.579,37.832 82.459,37.668 82.37,37.453 C 82.282,37.238 82.235,36.932 82.232,36.535 C 82.349,36.714 82.493,36.847 82.663,36.933 C 82.832,37.02 83.01,37.063 83.196,37.063 C 83.521,37.063 83.798,36.944 84.026,36.704 C 84.255,36.465 84.369,36.156 84.369,35.777 C 84.369,35.528 84.315,35.296 84.208,35.082 C 84.1,34.868 83.953,34.704 83.765,34.59 C 83.577,34.477 83.364,34.42 83.126,34.42 C 82.719,34.42 82.388,34.569 82.132,34.868 C 81.875,35.167 81.747,35.659 81.747,36.346 C 81.747,37.113 81.889,37.671 82.172,38.019 C 82.42,38.323 82.753,38.474 83.172,38.474 C 83.484,38.474 83.74,38.387 83.94,38.212 C 84.139,38.036 84.259,37.795 84.298,37.486 Z M 82.308,35.774 C 82.308,35.606 82.343,35.445 82.415,35.292 C 82.486,35.138 82.586,35.022 82.714,34.941 C 82.842,34.861 82.977,34.821 83.118,34.821 C 83.323,34.821 83.5,34.904 83.648,35.07 C 83.797,35.236 83.871,35.462 83.871,35.747 C 83.871,36.021 83.797,36.238 83.651,36.396 C 83.505,36.554 83.321,36.633 83.099,36.633 C 82.878,36.633 82.691,36.554 82.538,36.396 C 82.384,36.238 82.308,36.03 82.308,35.774 Z" marker-start="none" marker-end="none"/>
     </g>
    </g>
    <path d="M 75.565,35.7 C 75.315,35.951 75.315,36.358 75.565,36.609 C 75.816,36.861 76.225,36.861 76.476,36.609 C 76.727,36.358 76.727,35.951 76.476,35.7 C 76.225,35.448 75.816,35.448 75.565,35.7 Z" stroke-linejoin="miter" stroke-width="1.42" stroke="none" fill="#e5e5e5" marker-start="none" marker-end="none" stroke-miterlimit="79.8403193612775"/>
    <g id="Group_22" stroke="none" stroke-width="0.165" fill="#7bbdff" stroke-miterlimit="79.8403193612775">
     <g id="Group_23">
      <path d="M 56.065,10.186 L 56.553,10.251 C 56.609,9.974 56.704,9.775 56.839,9.653 C 56.973,9.532 57.137,9.471 57.33,9.471 C 57.56,9.471 57.753,9.55 57.911,9.709 C 58.069,9.868 58.148,10.065 58.148,10.299 C 58.148,10.523 58.075,10.708 57.929,10.853 C 57.783,10.999 57.597,11.071 57.371,11.071 C 57.279,11.071 57.164,11.053 57.027,11.017 L 57.081,11.445 C 57.114,11.442 57.14,11.44 57.16,11.44 C 57.367,11.44 57.554,11.494 57.72,11.602 C 57.886,11.711 57.969,11.878 57.969,12.103 C 57.969,12.282 57.909,12.43 57.788,12.548 C 57.667,12.665 57.511,12.724 57.319,12.724 C 57.13,12.724 56.972,12.664 56.845,12.545 C 56.719,12.426 56.638,12.247 56.602,12.009 L 56.114,12.095 C 56.174,12.422 56.309,12.675 56.52,12.855 C 56.732,13.035 56.994,13.124 57.309,13.124 C 57.525,13.124 57.725,13.078 57.907,12.985 C 58.09,12.892 58.229,12.765 58.326,12.604 C 58.422,12.444 58.471,12.273 58.471,12.092 C 58.471,11.921 58.424,11.765 58.332,11.624 C 58.24,11.483 58.104,11.371 57.923,11.288 C 58.158,11.234 58.341,11.121 58.471,10.951 C 58.601,10.78 58.666,10.567 58.666,10.31 C 58.666,9.964 58.539,9.67 58.286,9.429 C 58.034,9.188 57.714,9.067 57.328,9.067 C 56.979,9.067 56.69,9.171 56.46,9.379 C 56.229,9.586 56.098,9.855 56.065,10.186 Z" marker-start="none" marker-end="none"/>
      <path d="M 60.711,9.138 L 60.711,10.088 L 58.989,10.088 L 58.989,10.535 L 60.801,13.108 L 61.199,13.108 L 61.199,10.535 L 61.735,10.535 L 61.735,10.088 L 61.199,10.088 L 61.199,9.138 L 60.711,9.138 Z M 60.711,10.535 L 60.711,12.325 L 59.468,10.535 L 60.711,10.535 Z" marker-start="none" marker-end="none"/>
     </g>
    </g>
    <path d="M 64.015,10.65 C 63.765,10.901 63.765,11.308 64.015,11.559 C 64.266,11.811 64.675,11.811 64.926,11.559 C 65.177,11.308 65.177,10.901 64.926,10.65 C 64.675,10.398 64.266,10.398 64.015,10.65 Z" stroke-linejoin="miter" stroke-width="1.42" stroke="none" fill="#e5e5e5" marker-start="none" marker-end="none" stroke-miterlimit="79.8403193612775"/>
    <g id="Group_24" stroke="none" stroke-width="0.165" fill="#7bbdff" stroke-miterlimit="79.8403193612775">
     <g id="Group_25">
      <path d="M 20.245,68.088 L 20.245,69.038 L 18.523,69.038 L 18.523,69.485 L 20.335,72.058 L 20.733,72.058 L 20.733,69.485 L 21.269,69.485 L 21.269,69.038 L 20.733,69.038 L 20.733,68.088 L 20.245,68.088 Z M 20.245,69.485 L 20.245,71.275 L 19.002,69.485 L 20.245,69.485 Z" marker-start="none" marker-end="none"/>
      <path d="M 22.519,70.241 C 22.317,70.315 22.167,70.42 22.069,70.558 C 21.972,70.695 21.923,70.859 21.923,71.051 C 21.923,71.34 22.027,71.582 22.235,71.779 C 22.442,71.976 22.719,72.074 23.063,72.074 C 23.41,72.074 23.689,71.974 23.9,71.772 C 24.112,71.571 24.217,71.326 24.217,71.037 C 24.217,70.853 24.169,70.693 24.072,70.556 C 23.976,70.42 23.829,70.315 23.632,70.241 C 23.876,70.161 24.061,70.033 24.189,69.856 C 24.316,69.679 24.38,69.468 24.38,69.222 C 24.38,68.883 24.26,68.598 24.019,68.366 C 23.779,68.135 23.463,68.02 23.071,68.02 C 22.68,68.02 22.364,68.136 22.124,68.368 C 21.883,68.6 21.763,68.889 21.763,69.236 C 21.763,69.494 21.829,69.71 21.96,69.885 C 22.091,70.059 22.277,70.178 22.519,70.241 Z M 22.421,71.067 C 22.421,70.879 22.482,70.726 22.603,70.606 C 22.724,70.487 22.881,70.428 23.074,70.428 C 23.262,70.428 23.416,70.487 23.536,70.605 C 23.656,70.723 23.716,70.868 23.716,71.04 C 23.716,71.218 23.654,71.369 23.531,71.491 C 23.407,71.613 23.253,71.674 23.069,71.674 C 22.883,71.674 22.728,71.614 22.606,71.495 C 22.483,71.376 22.421,71.233 22.421,71.067 Z M 22.264,69.233 C 22.264,69.094 22.297,68.96 22.363,68.83 C 22.429,68.7 22.527,68.599 22.657,68.528 C 22.787,68.456 22.927,68.421 23.077,68.421 C 23.31,68.421 23.502,68.496 23.654,68.645 C 23.805,68.795 23.881,68.986 23.881,69.217 C 23.881,69.452 23.803,69.646 23.647,69.799 C 23.491,69.953 23.295,70.029 23.061,70.029 C 22.831,70.029 22.641,69.954 22.491,69.802 C 22.34,69.65 22.264,69.461 22.264,69.233 Z" marker-start="none" marker-end="none"/>
     </g>
    </g>
    <path d="M 15.565,69.3 C 15.315,69.551 15.315,69.958 15.565,70.209 C 15.816,70.461 16.225,70.461 16.476,70.209 C 16.727,69.958 16.727,69.551 16.476,69.3 C 16.225,69.048 15.816,69.048 15.565,69.3 Z" stroke-linejoin="miter" stroke-width="1.42" stroke="none" fill="#e5e5e5" marker-start="none" marker-end="none" stroke-miterlimit="79.8403193612775"/>
   </g>
  </g>
 </g>
</svg>
